HIERARCHY
ROOT root
{
	OFFSET 0.000000 0.000000 0.000000
	CHANNELS 6 Xposition Yposition Zposition Zrotation Yrotation Xrotation
	JOINT lhip
	{
		OFFSET 0.058581 -0.082280 -0.017664
		CHANNELS 3 Zrotation Yrotation Xrotation
		JOINT lknee
		{
			OFFSET 0.043451 -0.386469 0.008037
			CHANNELS 3 Zrotation Yrotation Xrotation
			JOINT lankle
			{
				OFFSET -0.014790 -0.426874 -0.037428
				CHANNELS 3 Zrotation Yrotation Xrotation
				JOINT ltoe
				{
					OFFSET 0.041054 -0.060286 0.122042
					CHANNELS 3 Zrotation Yrotation Xrotation
					End Site
					{
						OFFSET 0.000000 0.000000 0.000000
					}
				}
			}
		}
	}
	JOINT rhip
	{
		OFFSET -0.060310 -0.090513 -0.013543
		CHANNELS 3 Zrotation Yrotation Xrotation
		JOINT rknee
		{
			OFFSET -0.043257 -0.383688 -0.004843
			CHANNELS 3 Zrotation Yrotation Xrotation
			JOINT rankle
			{
				OFFSET 0.019056 -0.420046 -0.034562
				CHANNELS 3 Zrotation Yrotation Xrotation
				JOINT rtoe
				{
					OFFSET -0.034840 -0.062106 0.130323
					CHANNELS 3 Zrotation Yrotation Xrotation
					End Site
					{
						OFFSET 0.000000 0.000000 0.000000
					}
				}
			}
		}
	}
	JOINT lowerback
	{
		OFFSET 0.004439 0.124404 -0.038385
		CHANNELS 3 Zrotation Yrotation Xrotation
		JOINT upperback
		{
			OFFSET 0.004488 0.137956 0.026820
			CHANNELS 3 Zrotation Yrotation Xrotation
			JOINT chest
			{
				OFFSET -0.002265 0.056032 0.002855
				CHANNELS 3 Zrotation Yrotation Xrotation
				JOINT lowerneck
				{
					OFFSET -0.013390 0.211636 -0.033468
					CHANNELS 3 Zrotation Yrotation Xrotation
					JOINT upperneck
					{
						OFFSET 0.010113 0.088937 0.050410
						CHANNELS 3 Zrotation Yrotation Xrotation
						End Site
						{
							OFFSET 0.000000 0.000000 0.000000
						}
					}
				}
				JOINT lclavicle
				{
					OFFSET 0.071702 0.114000 -0.018898
					CHANNELS 3 Zrotation Yrotation Xrotation
					JOINT lshoulder
					{
						OFFSET 0.122921 0.045205 -0.019046
						CHANNELS 3 Zrotation Yrotation Xrotation
						JOINT lelbow
						{
							OFFSET 0.255332 -0.015649 -0.022946
							CHANNELS 3 Zrotation Yrotation Xrotation
							JOINT lwrist
							{
								OFFSET 0.265709 0.012698 -0.007375
								CHANNELS 3 Zrotation Yrotation Xrotation
								End Site
								{
									OFFSET 0.000000 0.000000 0.000000
								}
							}
						}
					}
				}
				JOINT rclavicle
				{
					OFFSET -0.082954 0.112472 -0.023707
					CHANNELS 3 Zrotation Yrotation Xrotation
					JOINT rshoulder
					{
						OFFSET -0.113228 0.046853 -0.008472
						CHANNELS 3 Zrotation Yrotation Xrotation
						JOINT relbow
						{
							OFFSET -0.260127 -0.014369 -0.031269
							CHANNELS 3 Zrotation Yrotation Xrotation
							JOINT rwrist
							{
								OFFSET -0.269108 0.006794 -0.006027
								CHANNELS 3 Zrotation Yrotation Xrotation
								End Site
								{
									OFFSET 0.000000 0.000000 0.000000
								}
							}
						}
					}
				}
			}
		}
	}
}
MOTION
Frames: 15
Frame Time: 0.033333
-0.766277 -1.302466 0.795538 137.789685 -0.433136 98.813586 33.273432 24.367660 -43.207979 -9.275409 13.489526 53.677582 -11.487552 0.123007 -10.300917 0.000000 -0.000000 0.000000 -31.415129 -13.758468 20.861229 4.288860 13.354372 19.471173 7.449620 3.529985 -28.057536 0.000000 -0.000000 0.000000 -4.420433 19.617852 14.497639 1.922896 1.001496 18.096796 5.565601 7.791156 -13.351843 -23.530572 13.240533 -2.827181 -11.786172 9.354457 -31.229516 -13.890947 -6.172649 15.506749 -48.618467 24.792412 -10.831537 -12.152070 -35.257841 45.494487 22.027035 4.252652 -21.997722 26.356604 21.878650 19.618800 16.125879 19.206373 -36.159996 -6.131560 16.495943 -11.700960 -0.632765 1.630817 9.608588 
-0.748234 -1.245666 0.777932 143.768844 -1.910686 99.781699 31.027165 22.213565 -44.524439 -9.495096 14.143855 55.543918 -8.194584 -1.360128 -16.505476 0.000000 -0.000000 0.000000 -29.690990 -15.644387 23.146465 1.015687 8.798038 25.309302 6.936486 -0.207069 -22.679379 0.000000 -0.000000 0.000000 -7.483737 22.278897 14.844362 0.107773 1.050525 19.399698 3.984183 8.837895 -12.577884 -23.708329 8.685609 -1.938250 -2.070990 0.203220 -33.498122 -12.656235 -8.945358 12.621860 -39.781022 14.241263 -8.737354 -10.376439 -39.448759 38.229091 29.349965 5.006513 -18.275722 27.009976 19.826582 19.041291 25.795764 14.521115 -25.902089 -5.981907 16.839760 -2.918926 -17.193481 6.869989 16.172157 
-0.730298 -1.190436 0.763601 150.253135 -2.203704 101.049409 31.109679 20.943063 -47.632983 -11.771639 14.674888 60.429603 -7.283068 -4.142559 -19.371544 0.000000 -0.000000 0.000000 -23.298742 -16.182498 19.750425 0.349784 4.886702 38.026101 2.548110 -5.728289 -19.945700 0.000000 -0.000000 0.000000 -10.473868 22.019598 16.913716 0.328402 -0.778795 19.304000 4.535883 7.434470 -13.700566 -22.460372 4.734956 4.028920 2.351111 -0.424039 -38.682429 -16.799244 -12.316555 12.212852 -34.844042 7.732986 -8.110615 -4.163420 -47.569932 28.801646 30.180319 6.146553 -17.629607 30.372860 17.557655 18.616599 25.745250 10.107312 -27.914729 -10.543695 24.043089 -11.259250 -15.259877 4.873078 12.924039 
-0.712787 -1.137276 0.755589 155.185884 -2.434140 100.661331 30.003065 20.557215 -47.252002 -12.654558 12.939410 63.515090 -5.616991 -6.876678 -24.857617 0.000000 -0.000000 0.000000 -19.343619 -15.861914 14.075383 2.553974 1.023903 54.678929 4.444323 1.113626 -19.229438 0.000000 -0.000000 0.000000 -11.667490 19.277933 22.743244 0.331062 -4.306311 18.525231 5.333222 5.790618 -15.734806 -20.318637 5.763127 8.285641 3.400177 2.175996 -40.521065 -22.220274 -16.833087 12.707771 -32.972937 3.362463 -8.525866 6.117058 -54.984871 16.473979 28.259042 4.491684 -16.260282 31.612190 18.456928 19.411431 27.886594 6.053722 -25.705062 -13.946970 31.477179 -12.250709 -13.577608 4.019824 11.589365 
-0.695963 -1.090543 0.751291 156.952982 -1.927510 100.715163 30.681226 20.011622 -45.108206 -13.516022 11.615327 65.353644 -4.602541 -7.243896 -28.960158 0.000000 -0.000000 0.000000 -16.359487 -15.479622 2.272101 4.032382 -1.536730 73.966323 3.887339 3.304991 -19.263814 0.000000 -0.000000 0.000000 -11.968423 15.794070 27.128444 0.743016 -6.895557 17.659060 5.620858 3.579185 -16.118067 -17.367890 7.575144 7.269056 3.824044 6.234498 -39.240178 -24.496752 -21.644477 11.489865 -34.571920 -4.998539 -9.434845 15.283004 -59.282782 9.405683 24.569343 4.982597 -16.189156 30.291992 18.778381 18.081309 31.527254 5.883319 -25.663739 -19.200217 37.730412 -12.569797 -8.877299 1.910989 10.306253 
-0.674974 -1.047748 0.752091 156.692091 -0.772002 102.273901 31.564459 20.961783 -42.399980 -13.217660 10.065051 65.571187 -3.174329 -7.254102 -32.455017 0.000000 -0.000000 0.000000 -13.427540 -14.945866 -14.358011 0.839948 -3.466995 91.168785 0.375836 -1.034301 -20.135944 0.000000 -0.000000 0.000000 -12.629666 11.471756 31.035212 1.644667 -8.439152 13.277204 6.751056 1.192226 -15.092585 -16.455491 7.250356 4.551594 3.546931 10.996687 -39.092643 -24.590077 -25.535818 9.964831 -37.645053 -15.406800 -9.637048 22.967155 -63.394899 3.242715 22.998817 5.684449 -18.881950 27.561864 18.292690 16.396684 35.700399 6.868544 -25.425454 -27.108701 43.364843 -16.632390 -3.457582 0.244005 7.720708 
-0.644696 -1.004442 0.756236 154.774076 0.920369 103.583110 34.033271 22.774156 -36.563517 -13.021995 8.600633 63.445344 -3.758154 -7.519578 -35.018825 0.000000 -0.000000 0.000000 -10.957972 -12.011285 -31.647990 -2.160741 -5.812796 102.437284 -2.665171 -4.287746 -22.329640 0.000000 -0.000000 0.000000 -13.541200 6.514961 33.257577 3.206091 -9.183498 10.573319 7.964247 -0.849857 -14.420603 -15.934379 9.556079 2.520696 1.272838 14.040238 -39.582084 -21.379062 -28.269738 7.219819 -39.654855 -25.008664 -8.873893 26.715456 -65.860537 4.142945 21.032017 4.005067 -18.817232 23.731443 17.640066 14.687959 39.610215 9.740270 -22.658667 -30.487938 47.997256 -14.940093 0.648581 0.119426 2.409033 
-0.603948 -0.957318 0.765356 154.143358 2.104496 105.315373 35.837133 22.481765 -30.062161 -12.714468 6.015277 58.206440 -5.208076 -7.181672 -35.402668 0.000000 -0.000000 0.000000 -10.272562 -10.516672 -47.239558 -4.522684 -11.250911 106.323519 -3.720309 -4.226203 -25.602869 0.000000 -0.000000 0.000000 -12.620898 0.869091 34.203233 5.064612 -9.808368 7.619411 8.575749 -2.968442 -13.133428 -15.056657 13.371131 -0.409916 -1.776866 15.784610 -37.655819 -15.506010 -28.595089 2.782088 -44.635551 -33.600919 -6.761657 28.307247 -66.269566 6.971457 16.187452 0.656725 -19.267309 19.299552 15.474322 12.777350 44.274766 13.809471 -21.387859 -34.703428 51.317960 -17.203491 10.679518 1.703326 -9.289671 
-0.548764 -0.903799 0.781771 152.740838 2.225135 107.481136 36.531372 20.282798 -21.145987 -10.658622 3.879450 48.850109 -8.046417 -6.655011 -32.304172 0.000000 -0.000000 0.000000 -10.028463 -10.436377 -59.821499 -7.932805 -17.528498 103.661135 -3.876975 -3.158065 -26.875265 0.000000 -0.000000 0.000000 -11.564260 -3.643079 31.737933 6.715069 -9.831872 7.732710 9.262128 -4.081433 -12.330643 -15.453739 17.069188 -2.691287 -4.619061 15.397495 -37.765510 -9.925419 -27.485597 0.289369 -50.378702 -38.027991 -3.669724 34.308880 -67.733094 3.639382 14.498699 -1.515925 -19.287774 17.217719 13.181934 12.736497 50.012651 16.427128 -18.311867 -38.606407 54.344396 -18.081456 15.749112 3.789188 -15.030841 
-0.482340 -0.844084 0.804449 148.682592 1.640882 108.148923 35.243970 16.314875 -8.549011 -7.391796 -0.318052 37.217431 -12.220916 -5.093776 -22.444189 0.000000 -0.000000 0.000000 -9.151590 -8.812160 -66.718963 -7.126002 -22.610317 96.189844 -4.108834 0.539242 -27.822942 0.000000 -0.000000 0.000000 -10.028231 -7.008269 29.026210 7.366374 -8.844777 9.527453 9.349456 -4.585372 -12.914779 -16.811075 22.197349 -3.992015 -9.266274 16.754148 -37.577340 -8.870468 -23.978777 -0.323718 -53.710358 -34.758844 -2.101228 38.490658 -70.308814 1.352545 12.254067 -5.723354 -18.414167 16.304145 10.758566 11.932254 57.660125 16.936975 -14.126127 -54.621693 60.618667 -28.351117 29.630853 9.711637 -20.288400 
-0.410200 -0.778466 0.823352 144.030234 0.879058 107.781438 31.133259 10.741705 1.421111 -1.297020 0.477127 31.434055 -10.373649 2.073289 -8.799532 0.000000 -0.000000 0.000000 -7.709430 -6.688408 -67.070520 -4.702487 -25.561047 88.822288 -5.442059 1.684134 -27.197685 0.000000 -0.000000 0.000000 -6.867702 -10.287420 25.860894 7.237507 -7.943500 11.030117 9.210359 -5.020189 -14.702909 -15.921266 24.599800 -0.236026 -16.244098 23.643243 -37.199538 -14.284828 -20.209118 4.220960 -53.658142 -26.188253 -4.530617 33.130280 -69.670232 6.079419 10.104842 -7.131188 -15.986488 16.326860 10.244873 12.753682 61.069137 19.177095 -11.344443 -66.172375 61.634200 -35.616422 31.544460 8.654061 -15.494529 
-0.336961 -0.712322 0.833010 139.399977 -1.252127 106.769341 22.805543 4.467484 5.056737 -1.477140 -2.336929 39.999312 -5.951254 5.086124 -8.509343 0.000000 -0.000000 0.000000 -5.881136 -4.964338 -62.032378 -3.367827 -23.744498 84.800782 -5.800373 -0.253922 -22.740974 0.000000 -0.000000 0.000000 -3.661450 -11.273119 22.377764 7.054099 -8.105104 12.630611 9.022162 -5.435828 -15.836812 -15.814617 23.693344 6.138239 -24.895402 30.418815 -40.809186 -19.713598 -16.987409 9.894960 -54.046880 -16.730418 -6.624638 18.984619 -64.966759 13.337152 -1.848884 -7.656677 -21.494371 16.030437 11.032493 13.186649 60.221425 23.246238 -8.814137 -72.311845 61.185127 -38.983933 35.028260 1.563958 -4.062301 
-0.262871 -0.654766 0.833779 131.908877 -2.971926 105.829367 14.876563 2.599641 3.370163 -9.167613 -1.184578 59.060187 -1.852561 1.933266 -10.159702 0.000000 -0.000000 0.000000 -3.820987 0.375698 -53.127437 -2.179932 -20.205581 83.336777 -6.918764 -6.598162 -27.907685 0.000000 -0.000000 0.000000 -3.576272 -8.410737 21.002501 7.665655 -6.636754 14.131370 8.620385 -4.825235 -16.493761 -12.452083 21.752339 9.064188 -32.896926 35.232243 -41.586085 -23.464526 -13.799796 13.423682 -55.470818 -6.122814 -4.897481 8.048299 -59.237262 22.895776 0.299964 -6.896142 -19.744006 14.987042 13.981809 9.808113 59.540719 24.276166 -6.155266 -84.529471 53.749811 -50.669521 54.811395 9.051029 -11.257469 
-0.190833 -0.601812 0.830580 125.610345 -3.102610 107.073536 11.350353 3.827884 -5.911217 -4.025942 7.593590 79.414929 1.033170 6.073083 -11.823932 0.000000 -0.000000 0.000000 -1.604562 3.894506 -43.785647 0.643234 -14.583766 78.499142 -8.395084 -8.468753 -35.347383 0.000000 -0.000000 0.000000 -1.622779 -5.418806 19.412614 7.895929 -4.829965 15.443529 7.155072 -3.175061 -17.044539 -11.623814 18.933071 10.778354 -37.512867 34.943499 -45.389315 -26.396938 -10.883540 16.825986 -56.494508 5.499973 -4.103481 -3.249018 -55.621455 38.325318 0.965918 -5.896632 -13.486995 14.494423 17.129077 8.791826 53.386517 27.060575 -7.008396 -98.138870 53.805681 -63.056102 58.742322 10.953805 -15.443351 
-0.121948 -0.553079 0.831211 120.330603 -2.565047 108.352997 9.599593 3.575389 -20.848365 -0.226181 11.675244 97.131414 3.639530 7.095510 -14.180180 0.000000 -0.000000 0.000000 -0.637309 4.508653 -35.563823 4.324986 -9.787070 73.423332 -8.088020 -7.982758 -37.518521 0.000000 -0.000000 0.000000 0.702920 -1.292467 21.128145 6.863113 -2.207331 15.630027 6.010802 -0.856564 -17.596750 -14.242632 14.299634 10.559825 -38.025496 31.638333 -49.879885 -27.023582 -8.796854 18.674596 -56.700305 15.482550 -3.747909 -10.554503 -50.865801 47.735241 -1.136212 -6.383665 -12.091060 12.177985 20.658161 8.495243 42.946015 27.238141 -10.088044 -99.706854 56.195102 -67.545905 52.848852 12.062075 -20.060336 
